<mxfile host="Electron" agent="Mozilla/5.0 (Windows NT 10.0; Win64; x64) AppleWebKit/537.36 (KHTML, like Gecko) draw.io/26.2.2 Chrome/134.0.6998.178 Electron/35.1.2 Safari/537.36" version="26.2.2">
  <diagram name="ページ1" id="jOxPYxRe2NjSyaelDi7L">
    <mxGraphModel dx="1038" dy="1773" grid="1" gridSize="10" guides="1" tooltips="1" connect="1" arrows="1" fold="1" page="1" pageScale="1" pageWidth="827" pageHeight="1169" math="0" shadow="0">
      <root>
        <mxCell id="0" />
        <mxCell id="1" parent="0" />
        <mxCell id="DdHN2ZvcSUB-z4P__BnH-2" value="プレイ方法の選択" style="swimlane;childLayout=stackLayout;resizeParent=1;resizeParentMax=0;startSize=20;html=1;" parent="1" vertex="1">
          <mxGeometry x="60" y="10" width="570" height="310" as="geometry" />
        </mxCell>
        <mxCell id="DdHN2ZvcSUB-z4P__BnH-3" value="プレイヤー" style="swimlane;startSize=20;html=1;" parent="DdHN2ZvcSUB-z4P__BnH-2" vertex="1">
          <mxGeometry y="20" width="130" height="290" as="geometry" />
        </mxCell>
        <mxCell id="DdHN2ZvcSUB-z4P__BnH-26" value="先手後手の選択" style="rounded=0;whiteSpace=wrap;html=1;" parent="DdHN2ZvcSUB-z4P__BnH-3" vertex="1">
          <mxGeometry x="31" y="140" width="90" height="20" as="geometry" />
        </mxCell>
        <mxCell id="DdHN2ZvcSUB-z4P__BnH-160" style="edgeStyle=orthogonalEdgeStyle;rounded=0;orthogonalLoop=1;jettySize=auto;html=1;exitX=0.5;exitY=1;exitDx=0;exitDy=0;" parent="DdHN2ZvcSUB-z4P__BnH-3" source="DdHN2ZvcSUB-z4P__BnH-158" edge="1">
          <mxGeometry relative="1" as="geometry">
            <mxPoint x="150" y="110" as="targetPoint" />
            <Array as="points">
              <mxPoint x="65" y="110" />
            </Array>
          </mxGeometry>
        </mxCell>
        <mxCell id="DdHN2ZvcSUB-z4P__BnH-158" value="プレイ方法の選択" style="rounded=0;whiteSpace=wrap;html=1;" parent="DdHN2ZvcSUB-z4P__BnH-3" vertex="1">
          <mxGeometry x="5" y="70" width="120" height="25" as="geometry" />
        </mxCell>
        <mxCell id="DdHN2ZvcSUB-z4P__BnH-4" value="クライアントプログラム" style="swimlane;startSize=20;html=1;" parent="DdHN2ZvcSUB-z4P__BnH-2" vertex="1">
          <mxGeometry x="130" y="20" width="280" height="290" as="geometry" />
        </mxCell>
        <mxCell id="DdHN2ZvcSUB-z4P__BnH-24" style="edgeStyle=orthogonalEdgeStyle;rounded=0;orthogonalLoop=1;jettySize=auto;html=1;exitX=0.5;exitY=1;exitDx=0;exitDy=0;entryX=0.5;entryY=0;entryDx=0;entryDy=0;" parent="DdHN2ZvcSUB-z4P__BnH-4" source="DdHN2ZvcSUB-z4P__BnH-14" target="DdHN2ZvcSUB-z4P__BnH-23" edge="1">
          <mxGeometry relative="1" as="geometry" />
        </mxCell>
        <mxCell id="DdHN2ZvcSUB-z4P__BnH-14" value="" style="ellipse;whiteSpace=wrap;html=1;aspect=fixed;fillColor=light-dark(#000000, #1a1a1a);fontColor=#333333;strokeColor=#666666;" parent="DdHN2ZvcSUB-z4P__BnH-4" vertex="1">
          <mxGeometry x="160" y="30" width="20" height="20" as="geometry" />
        </mxCell>
        <mxCell id="DdHN2ZvcSUB-z4P__BnH-29" style="edgeStyle=orthogonalEdgeStyle;rounded=0;orthogonalLoop=1;jettySize=auto;html=1;exitX=0.5;exitY=1;exitDx=0;exitDy=0;entryX=0.5;entryY=0;entryDx=0;entryDy=0;" parent="DdHN2ZvcSUB-z4P__BnH-4" source="DdHN2ZvcSUB-z4P__BnH-23" target="DdHN2ZvcSUB-z4P__BnH-27" edge="1">
          <mxGeometry relative="1" as="geometry" />
        </mxCell>
        <mxCell id="DdHN2ZvcSUB-z4P__BnH-23" value="&lt;div&gt;スタート画面&lt;/div&gt;" style="rounded=0;whiteSpace=wrap;html=1;" parent="DdHN2ZvcSUB-z4P__BnH-4" vertex="1">
          <mxGeometry x="100" y="65" width="140" height="30" as="geometry" />
        </mxCell>
        <mxCell id="Q-pru-dwEbLBsa_V41_M-358" style="edgeStyle=orthogonalEdgeStyle;rounded=0;orthogonalLoop=1;jettySize=auto;html=1;exitX=0.5;exitY=1;exitDx=0;exitDy=0;entryX=0.5;entryY=0;entryDx=0;entryDy=0;" parent="DdHN2ZvcSUB-z4P__BnH-4" source="DdHN2ZvcSUB-z4P__BnH-27" target="DdHN2ZvcSUB-z4P__BnH-141" edge="1">
          <mxGeometry relative="1" as="geometry" />
        </mxCell>
        <mxCell id="Q-pru-dwEbLBsa_V41_M-366" value="対人" style="edgeLabel;html=1;align=center;verticalAlign=middle;resizable=0;points=[];" parent="Q-pru-dwEbLBsa_V41_M-358" vertex="1" connectable="0">
          <mxGeometry x="-0.5195" y="1" relative="1" as="geometry">
            <mxPoint y="1" as="offset" />
          </mxGeometry>
        </mxCell>
        <mxCell id="Q-pru-dwEbLBsa_V41_M-367" value="「ログイン」へ" style="edgeLabel;html=1;align=center;verticalAlign=middle;resizable=0;points=[];" parent="Q-pru-dwEbLBsa_V41_M-358" vertex="1" connectable="0">
          <mxGeometry x="0.4416" y="-2" relative="1" as="geometry">
            <mxPoint y="-1" as="offset" />
          </mxGeometry>
        </mxCell>
        <mxCell id="DdHN2ZvcSUB-z4P__BnH-27" value="" style="rhombus;whiteSpace=wrap;html=1;" parent="DdHN2ZvcSUB-z4P__BnH-4" vertex="1">
          <mxGeometry x="160" y="120" width="20" height="20" as="geometry" />
        </mxCell>
        <mxCell id="Q-pru-dwEbLBsa_V41_M-363" style="edgeStyle=orthogonalEdgeStyle;rounded=0;orthogonalLoop=1;jettySize=auto;html=1;exitX=0.5;exitY=1;exitDx=0;exitDy=0;entryX=0.5;entryY=0;entryDx=0;entryDy=0;" parent="DdHN2ZvcSUB-z4P__BnH-4" source="DdHN2ZvcSUB-z4P__BnH-32" target="Q-pru-dwEbLBsa_V41_M-362" edge="1">
          <mxGeometry relative="1" as="geometry" />
        </mxCell>
        <mxCell id="Q-pru-dwEbLBsa_V41_M-364" value="「対局」へ" style="edgeLabel;html=1;align=center;verticalAlign=middle;resizable=0;points=[];" parent="Q-pru-dwEbLBsa_V41_M-363" vertex="1" connectable="0">
          <mxGeometry x="-0.1714" y="-1" relative="1" as="geometry">
            <mxPoint y="-1" as="offset" />
          </mxGeometry>
        </mxCell>
        <mxCell id="DdHN2ZvcSUB-z4P__BnH-32" value="CPUプログラムを呼び出す" style="rounded=0;whiteSpace=wrap;html=1;" parent="DdHN2ZvcSUB-z4P__BnH-4" vertex="1">
          <mxGeometry x="30" y="160" width="90" height="40" as="geometry" />
        </mxCell>
        <mxCell id="DdHN2ZvcSUB-z4P__BnH-168" style="edgeStyle=orthogonalEdgeStyle;rounded=0;orthogonalLoop=1;jettySize=auto;html=1;exitX=1;exitY=0.5;exitDx=0;exitDy=0;" parent="DdHN2ZvcSUB-z4P__BnH-4" source="DdHN2ZvcSUB-z4P__BnH-163" edge="1">
          <mxGeometry relative="1" as="geometry">
            <mxPoint x="170" y="110.41176470588243" as="targetPoint" />
          </mxGeometry>
        </mxCell>
        <mxCell id="DdHN2ZvcSUB-z4P__BnH-163" value="選択を受け取る" style="rounded=0;whiteSpace=wrap;html=1;" parent="DdHN2ZvcSUB-z4P__BnH-4" vertex="1">
          <mxGeometry x="19" y="100" width="120" height="20" as="geometry" />
        </mxCell>
        <mxCell id="DdHN2ZvcSUB-z4P__BnH-141" value="" style="ellipse;html=1;shape=endState;fillColor=#000000;strokeColor=#000000;" parent="DdHN2ZvcSUB-z4P__BnH-4" vertex="1">
          <mxGeometry x="159.5" y="250" width="21" height="20" as="geometry" />
        </mxCell>
        <mxCell id="Q-pru-dwEbLBsa_V41_M-362" value="" style="ellipse;html=1;shape=endState;fillColor=#000000;strokeColor=#000000;" parent="DdHN2ZvcSUB-z4P__BnH-4" vertex="1">
          <mxGeometry x="64.5" y="250" width="21" height="20" as="geometry" />
        </mxCell>
        <mxCell id="DdHN2ZvcSUB-z4P__BnH-5" value="サーバ" style="swimlane;startSize=20;html=1;" parent="DdHN2ZvcSUB-z4P__BnH-2" vertex="1">
          <mxGeometry x="410" y="20" width="160" height="290" as="geometry" />
        </mxCell>
        <mxCell id="DdHN2ZvcSUB-z4P__BnH-31" style="edgeStyle=orthogonalEdgeStyle;rounded=0;orthogonalLoop=1;jettySize=auto;html=1;exitX=0;exitY=0.5;exitDx=0;exitDy=0;entryX=0.5;entryY=0;entryDx=0;entryDy=0;" parent="DdHN2ZvcSUB-z4P__BnH-2" source="DdHN2ZvcSUB-z4P__BnH-27" target="DdHN2ZvcSUB-z4P__BnH-26" edge="1">
          <mxGeometry relative="1" as="geometry">
            <Array as="points">
              <mxPoint x="76" y="150" />
            </Array>
          </mxGeometry>
        </mxCell>
        <mxCell id="DdHN2ZvcSUB-z4P__BnH-39" value="対CPU" style="edgeLabel;html=1;align=center;verticalAlign=middle;resizable=0;points=[];" parent="DdHN2ZvcSUB-z4P__BnH-31" vertex="1" connectable="0">
          <mxGeometry x="-0.3176" relative="1" as="geometry">
            <mxPoint as="offset" />
          </mxGeometry>
        </mxCell>
        <mxCell id="DdHN2ZvcSUB-z4P__BnH-43" style="edgeStyle=orthogonalEdgeStyle;rounded=0;orthogonalLoop=1;jettySize=auto;html=1;exitX=0.5;exitY=1;exitDx=0;exitDy=0;entryX=0;entryY=0.5;entryDx=0;entryDy=0;" parent="DdHN2ZvcSUB-z4P__BnH-2" source="DdHN2ZvcSUB-z4P__BnH-26" target="DdHN2ZvcSUB-z4P__BnH-32" edge="1">
          <mxGeometry relative="1" as="geometry" />
        </mxCell>
        <mxCell id="DdHN2ZvcSUB-z4P__BnH-159" style="edgeStyle=orthogonalEdgeStyle;rounded=0;orthogonalLoop=1;jettySize=auto;html=1;exitX=0;exitY=0.5;exitDx=0;exitDy=0;" parent="DdHN2ZvcSUB-z4P__BnH-2" source="DdHN2ZvcSUB-z4P__BnH-23" edge="1">
          <mxGeometry relative="1" as="geometry">
            <mxPoint x="125" y="100" as="targetPoint" />
          </mxGeometry>
        </mxCell>
        <mxCell id="Q-pru-dwEbLBsa_V41_M-183" value="ログイン" style="swimlane;childLayout=stackLayout;resizeParent=1;resizeParentMax=0;startSize=20;html=1;" parent="1" vertex="1">
          <mxGeometry x="60" y="357.5" width="570" height="405" as="geometry" />
        </mxCell>
        <mxCell id="Q-pru-dwEbLBsa_V41_M-184" value="プレイヤー" style="swimlane;startSize=20;html=1;" parent="Q-pru-dwEbLBsa_V41_M-183" vertex="1">
          <mxGeometry y="20" width="140" height="385" as="geometry" />
        </mxCell>
        <mxCell id="Q-pru-dwEbLBsa_V41_M-186" value="プレイヤー名入力" style="rounded=0;whiteSpace=wrap;html=1;" parent="Q-pru-dwEbLBsa_V41_M-184" vertex="1">
          <mxGeometry x="15" y="60" width="100" height="20" as="geometry" />
        </mxCell>
        <mxCell id="Q-pru-dwEbLBsa_V41_M-191" value="クライアントプログラム" style="swimlane;startSize=20;html=1;" parent="Q-pru-dwEbLBsa_V41_M-183" vertex="1">
          <mxGeometry x="140" y="20" width="250" height="385" as="geometry" />
        </mxCell>
        <mxCell id="Q-pru-dwEbLBsa_V41_M-193" value="" style="ellipse;whiteSpace=wrap;html=1;aspect=fixed;fillColor=light-dark(#000000, #1a1a1a);fontColor=#333333;strokeColor=#666666;" parent="Q-pru-dwEbLBsa_V41_M-191" vertex="1">
          <mxGeometry x="110" y="30" width="20" height="20" as="geometry" />
        </mxCell>
        <mxCell id="Q-pru-dwEbLBsa_V41_M-370" style="edgeStyle=orthogonalEdgeStyle;rounded=0;orthogonalLoop=1;jettySize=auto;html=1;exitX=0.5;exitY=1;exitDx=0;exitDy=0;" parent="Q-pru-dwEbLBsa_V41_M-191" source="Q-pru-dwEbLBsa_V41_M-371" edge="1">
          <mxGeometry relative="1" as="geometry">
            <mxPoint x="119.88888888888891" y="225" as="targetPoint" />
          </mxGeometry>
        </mxCell>
        <mxCell id="Q-pru-dwEbLBsa_V41_M-202" value="" style="rhombus;whiteSpace=wrap;html=1;" parent="Q-pru-dwEbLBsa_V41_M-191" vertex="1">
          <mxGeometry x="110" y="145" width="20" height="20" as="geometry" />
        </mxCell>
        <mxCell id="Q-pru-dwEbLBsa_V41_M-203" style="edgeStyle=orthogonalEdgeStyle;rounded=0;orthogonalLoop=1;jettySize=auto;html=1;exitX=0.5;exitY=1;exitDx=0;exitDy=0;entryX=0.5;entryY=0;entryDx=0;entryDy=0;" parent="Q-pru-dwEbLBsa_V41_M-191" source="Q-pru-dwEbLBsa_V41_M-204" target="Q-pru-dwEbLBsa_V41_M-202" edge="1">
          <mxGeometry relative="1" as="geometry" />
        </mxCell>
        <mxCell id="Q-pru-dwEbLBsa_V41_M-204" value="サーバに接続" style="rounded=0;whiteSpace=wrap;html=1;" parent="Q-pru-dwEbLBsa_V41_M-191" vertex="1">
          <mxGeometry x="60" y="90" width="120" height="30" as="geometry" />
        </mxCell>
        <mxCell id="Q-pru-dwEbLBsa_V41_M-205" value="" style="endArrow=classic;html=1;rounded=0;exitX=1;exitY=0.5;exitDx=0;exitDy=0;" parent="Q-pru-dwEbLBsa_V41_M-191" source="Q-pru-dwEbLBsa_V41_M-202" edge="1">
          <mxGeometry width="50" height="50" relative="1" as="geometry">
            <mxPoint x="251" y="320" as="sourcePoint" />
            <mxPoint x="290" y="155" as="targetPoint" />
          </mxGeometry>
        </mxCell>
        <mxCell id="Q-pru-dwEbLBsa_V41_M-206" value="接続成功" style="edgeLabel;html=1;align=center;verticalAlign=middle;resizable=0;points=[];" parent="Q-pru-dwEbLBsa_V41_M-205" vertex="1" connectable="0">
          <mxGeometry x="-0.1983" relative="1" as="geometry">
            <mxPoint as="offset" />
          </mxGeometry>
        </mxCell>
        <mxCell id="Q-pru-dwEbLBsa_V41_M-376" style="edgeStyle=orthogonalEdgeStyle;rounded=0;orthogonalLoop=1;jettySize=auto;html=1;exitX=0.5;exitY=1;exitDx=0;exitDy=0;entryX=0.5;entryY=0;entryDx=0;entryDy=0;" parent="Q-pru-dwEbLBsa_V41_M-191" source="Q-pru-dwEbLBsa_V41_M-208" target="Q-pru-dwEbLBsa_V41_M-375" edge="1">
          <mxGeometry relative="1" as="geometry" />
        </mxCell>
        <mxCell id="Q-pru-dwEbLBsa_V41_M-377" value="「対局」へ" style="edgeLabel;html=1;align=center;verticalAlign=middle;resizable=0;points=[];" parent="Q-pru-dwEbLBsa_V41_M-376" vertex="1" connectable="0">
          <mxGeometry x="-0.2011" y="1" relative="1" as="geometry">
            <mxPoint as="offset" />
          </mxGeometry>
        </mxCell>
        <mxCell id="Q-pru-dwEbLBsa_V41_M-208" value="先手後手情報の受信" style="rounded=0;whiteSpace=wrap;html=1;" parent="Q-pru-dwEbLBsa_V41_M-191" vertex="1">
          <mxGeometry x="60" y="270" width="120" height="20" as="geometry" />
        </mxCell>
        <mxCell id="Q-pru-dwEbLBsa_V41_M-209" value="" style="endArrow=classic;html=1;rounded=0;entryX=1;entryY=0.5;entryDx=0;entryDy=0;" parent="Q-pru-dwEbLBsa_V41_M-191" target="Q-pru-dwEbLBsa_V41_M-208" edge="1">
          <mxGeometry width="50" height="50" relative="1" as="geometry">
            <mxPoint x="290" y="280" as="sourcePoint" />
            <mxPoint x="290" y="410" as="targetPoint" />
          </mxGeometry>
        </mxCell>
        <mxCell id="Q-pru-dwEbLBsa_V41_M-372" value="" style="edgeStyle=orthogonalEdgeStyle;rounded=0;orthogonalLoop=1;jettySize=auto;html=1;exitX=0.5;exitY=1;exitDx=0;exitDy=0;" parent="Q-pru-dwEbLBsa_V41_M-191" source="Q-pru-dwEbLBsa_V41_M-202" target="Q-pru-dwEbLBsa_V41_M-371" edge="1">
          <mxGeometry relative="1" as="geometry">
            <mxPoint x="1139.888888888889" y="265" as="targetPoint" />
            <mxPoint x="1140" y="205" as="sourcePoint" />
          </mxGeometry>
        </mxCell>
        <mxCell id="Q-pru-dwEbLBsa_V41_M-373" value="接続失敗" style="edgeLabel;html=1;align=center;verticalAlign=middle;resizable=0;points=[];" parent="Q-pru-dwEbLBsa_V41_M-372" vertex="1" connectable="0">
          <mxGeometry x="-0.5815" relative="1" as="geometry">
            <mxPoint as="offset" />
          </mxGeometry>
        </mxCell>
        <mxCell id="Q-pru-dwEbLBsa_V41_M-374" value="「プレイ方法の選択」へ" style="edgeLabel;html=1;align=center;verticalAlign=middle;resizable=0;points=[];" parent="Q-pru-dwEbLBsa_V41_M-372" vertex="1" connectable="0">
          <mxGeometry x="0.213" relative="1" as="geometry">
            <mxPoint as="offset" />
          </mxGeometry>
        </mxCell>
        <mxCell id="Q-pru-dwEbLBsa_V41_M-371" value="" style="verticalLabelPosition=bottom;verticalAlign=top;html=1;shape=mxgraph.flowchart.or;" parent="Q-pru-dwEbLBsa_V41_M-191" vertex="1">
          <mxGeometry x="110" y="225" width="20" height="20" as="geometry" />
        </mxCell>
        <mxCell id="Q-pru-dwEbLBsa_V41_M-375" value="" style="ellipse;html=1;shape=endState;fillColor=#000000;strokeColor=#000000;" parent="Q-pru-dwEbLBsa_V41_M-191" vertex="1">
          <mxGeometry x="109" y="350" width="21" height="20" as="geometry" />
        </mxCell>
        <mxCell id="Q-pru-dwEbLBsa_V41_M-250" value="サーバ" style="swimlane;startSize=20;html=1;" parent="Q-pru-dwEbLBsa_V41_M-183" vertex="1">
          <mxGeometry x="390" y="20" width="180" height="385" as="geometry" />
        </mxCell>
        <mxCell id="Q-pru-dwEbLBsa_V41_M-368" style="edgeStyle=orthogonalEdgeStyle;rounded=0;orthogonalLoop=1;jettySize=auto;html=1;exitX=0.5;exitY=1;exitDx=0;exitDy=0;entryX=1;entryY=0.5;entryDx=0;entryDy=0;" parent="Q-pru-dwEbLBsa_V41_M-183" source="Q-pru-dwEbLBsa_V41_M-193" target="Q-pru-dwEbLBsa_V41_M-186" edge="1">
          <mxGeometry relative="1" as="geometry" />
        </mxCell>
        <mxCell id="Q-pru-dwEbLBsa_V41_M-369" style="edgeStyle=orthogonalEdgeStyle;rounded=0;orthogonalLoop=1;jettySize=auto;html=1;exitX=0.5;exitY=1;exitDx=0;exitDy=0;entryX=0;entryY=0.5;entryDx=0;entryDy=0;" parent="Q-pru-dwEbLBsa_V41_M-183" source="Q-pru-dwEbLBsa_V41_M-186" target="Q-pru-dwEbLBsa_V41_M-204" edge="1">
          <mxGeometry relative="1" as="geometry" />
        </mxCell>
        <mxCell id="Q-pru-dwEbLBsa_V41_M-274" value="対局する" style="swimlane;childLayout=stackLayout;resizeParent=1;resizeParentMax=0;startSize=20;html=1;" parent="1" vertex="1">
          <mxGeometry x="680" y="20" width="790" height="600" as="geometry" />
        </mxCell>
        <mxCell id="Q-pru-dwEbLBsa_V41_M-275" value="プレイヤー" style="swimlane;startSize=20;html=1;" parent="Q-pru-dwEbLBsa_V41_M-274" vertex="1">
          <mxGeometry y="20" width="130" height="580" as="geometry" />
        </mxCell>
        <mxCell id="Lt3LTjU2pGwsAMisA901-4" style="edgeStyle=orthogonalEdgeStyle;rounded=0;orthogonalLoop=1;jettySize=auto;html=1;exitX=0.5;exitY=1;exitDx=0;exitDy=0;entryX=0.5;entryY=0;entryDx=0;entryDy=0;" edge="1" parent="Q-pru-dwEbLBsa_V41_M-275" source="Q-pru-dwEbLBsa_V41_M-278" target="Lt3LTjU2pGwsAMisA901-3">
          <mxGeometry relative="1" as="geometry" />
        </mxCell>
        <mxCell id="Q-pru-dwEbLBsa_V41_M-278" value="設置場所の入力" style="rounded=0;whiteSpace=wrap;html=1;" parent="Q-pru-dwEbLBsa_V41_M-275" vertex="1">
          <mxGeometry x="5" y="125" width="120" height="25" as="geometry" />
        </mxCell>
        <mxCell id="Lt3LTjU2pGwsAMisA901-2" value="" style="endArrow=classic;html=1;rounded=0;exitX=0.5;exitY=1;exitDx=0;exitDy=0;" edge="1" parent="Q-pru-dwEbLBsa_V41_M-275" source="Lt3LTjU2pGwsAMisA901-3">
          <mxGeometry width="50" height="50" relative="1" as="geometry">
            <mxPoint x="40" y="400" as="sourcePoint" />
            <mxPoint x="662.6666666666666" y="370" as="targetPoint" />
            <Array as="points">
              <mxPoint x="65" y="370" />
            </Array>
          </mxGeometry>
        </mxCell>
        <mxCell id="Lt3LTjU2pGwsAMisA901-8" value="30秒入力&lt;br&gt;されない" style="edgeLabel;html=1;align=center;verticalAlign=middle;resizable=0;points=[];" vertex="1" connectable="0" parent="Lt3LTjU2pGwsAMisA901-2">
          <mxGeometry x="-0.874" y="-3" relative="1" as="geometry">
            <mxPoint as="offset" />
          </mxGeometry>
        </mxCell>
        <mxCell id="Lt3LTjU2pGwsAMisA901-3" value="" style="rhombus;whiteSpace=wrap;html=1;" vertex="1" parent="Q-pru-dwEbLBsa_V41_M-275">
          <mxGeometry x="55" y="170" width="20" height="20" as="geometry" />
        </mxCell>
        <mxCell id="Q-pru-dwEbLBsa_V41_M-282" value="クライアントプログラム" style="swimlane;startSize=20;html=1;" parent="Q-pru-dwEbLBsa_V41_M-274" vertex="1">
          <mxGeometry x="130" y="20" width="500" height="580" as="geometry" />
        </mxCell>
        <mxCell id="Q-pru-dwEbLBsa_V41_M-298" style="edgeStyle=orthogonalEdgeStyle;rounded=0;orthogonalLoop=1;jettySize=auto;html=1;exitX=0.5;exitY=1;exitDx=0;exitDy=0;entryX=0.5;entryY=0;entryDx=0;entryDy=0;" parent="Q-pru-dwEbLBsa_V41_M-282" source="Q-pru-dwEbLBsa_V41_M-382" target="Q-pru-dwEbLBsa_V41_M-302" edge="1">
          <mxGeometry relative="1" as="geometry">
            <mxPoint x="215" y="50" as="sourcePoint" />
          </mxGeometry>
        </mxCell>
        <mxCell id="Q-pru-dwEbLBsa_V41_M-301" style="edgeStyle=orthogonalEdgeStyle;rounded=0;orthogonalLoop=1;jettySize=auto;html=1;exitX=0.5;exitY=1;exitDx=0;exitDy=0;entryX=0.5;entryY=0;entryDx=0;entryDy=0;" parent="Q-pru-dwEbLBsa_V41_M-282" source="Q-pru-dwEbLBsa_V41_M-302" target="Q-pru-dwEbLBsa_V41_M-303" edge="1">
          <mxGeometry relative="1" as="geometry" />
        </mxCell>
        <mxCell id="Q-pru-dwEbLBsa_V41_M-302" value="盤面の表示" style="rounded=0;whiteSpace=wrap;html=1;" parent="Q-pru-dwEbLBsa_V41_M-282" vertex="1">
          <mxGeometry x="155" y="90" width="120" height="20" as="geometry" />
        </mxCell>
        <mxCell id="Q-pru-dwEbLBsa_V41_M-303" value="" style="rhombus;whiteSpace=wrap;html=1;" parent="Q-pru-dwEbLBsa_V41_M-282" vertex="1">
          <mxGeometry x="205" y="130" width="20" height="20" as="geometry" />
        </mxCell>
        <mxCell id="Q-pru-dwEbLBsa_V41_M-304" style="edgeStyle=orthogonalEdgeStyle;rounded=0;orthogonalLoop=1;jettySize=auto;html=1;exitX=0.5;exitY=1;exitDx=0;exitDy=0;entryX=0.5;entryY=0;entryDx=0;entryDy=0;" parent="Q-pru-dwEbLBsa_V41_M-282" source="Q-pru-dwEbLBsa_V41_M-305" target="Q-pru-dwEbLBsa_V41_M-310" edge="1">
          <mxGeometry relative="1" as="geometry">
            <mxPoint x="124" y="220" as="targetPoint" />
          </mxGeometry>
        </mxCell>
        <mxCell id="Q-pru-dwEbLBsa_V41_M-305" value="プレイヤーの入力を受け取る" style="rounded=0;whiteSpace=wrap;html=1;" parent="Q-pru-dwEbLBsa_V41_M-282" vertex="1">
          <mxGeometry x="64" y="160" width="120" height="40" as="geometry" />
        </mxCell>
        <mxCell id="Q-pru-dwEbLBsa_V41_M-306" value="" style="endArrow=none;html=1;rounded=0;" parent="Q-pru-dwEbLBsa_V41_M-282" edge="1">
          <mxGeometry width="50" height="50" relative="1" as="geometry">
            <mxPoint x="75" y="260" as="sourcePoint" />
            <mxPoint x="194" y="260" as="targetPoint" />
          </mxGeometry>
        </mxCell>
        <mxCell id="Q-pru-dwEbLBsa_V41_M-384" style="edgeStyle=orthogonalEdgeStyle;rounded=0;orthogonalLoop=1;jettySize=auto;html=1;exitX=1;exitY=0.5;exitDx=0;exitDy=0;" parent="Q-pru-dwEbLBsa_V41_M-282" source="Q-pru-dwEbLBsa_V41_M-307" edge="1">
          <mxGeometry relative="1" as="geometry">
            <mxPoint x="530" y="295" as="targetPoint" />
          </mxGeometry>
        </mxCell>
        <mxCell id="Q-pru-dwEbLBsa_V41_M-307" value="入力情報を送信" style="rounded=0;whiteSpace=wrap;html=1;" parent="Q-pru-dwEbLBsa_V41_M-282" vertex="1">
          <mxGeometry x="115" y="280" width="90" height="30" as="geometry" />
        </mxCell>
        <mxCell id="Q-pru-dwEbLBsa_V41_M-308" style="edgeStyle=orthogonalEdgeStyle;rounded=0;orthogonalLoop=1;jettySize=auto;html=1;exitX=0.5;exitY=1;exitDx=0;exitDy=0;" parent="Q-pru-dwEbLBsa_V41_M-282" source="Q-pru-dwEbLBsa_V41_M-310" edge="1">
          <mxGeometry relative="1" as="geometry">
            <mxPoint x="124" y="260" as="targetPoint" />
          </mxGeometry>
        </mxCell>
        <mxCell id="Q-pru-dwEbLBsa_V41_M-309" value="対人" style="edgeLabel;html=1;align=center;verticalAlign=middle;resizable=0;points=[];" parent="Q-pru-dwEbLBsa_V41_M-308" vertex="1" connectable="0">
          <mxGeometry x="-0.1435" y="-3" relative="1" as="geometry">
            <mxPoint as="offset" />
          </mxGeometry>
        </mxCell>
        <mxCell id="Q-pru-dwEbLBsa_V41_M-310" value="" style="rhombus;whiteSpace=wrap;html=1;" parent="Q-pru-dwEbLBsa_V41_M-282" vertex="1">
          <mxGeometry x="114" y="215" width="20" height="20" as="geometry" />
        </mxCell>
        <mxCell id="Q-pru-dwEbLBsa_V41_M-311" value="" style="endArrow=classic;html=1;rounded=0;entryX=0.5;entryY=0;entryDx=0;entryDy=0;" parent="Q-pru-dwEbLBsa_V41_M-282" target="Q-pru-dwEbLBsa_V41_M-307" edge="1">
          <mxGeometry width="50" height="50" relative="1" as="geometry">
            <mxPoint x="160" y="260" as="sourcePoint" />
            <mxPoint x="355" y="190" as="targetPoint" />
          </mxGeometry>
        </mxCell>
        <mxCell id="Q-pru-dwEbLBsa_V41_M-312" style="edgeStyle=orthogonalEdgeStyle;rounded=0;orthogonalLoop=1;jettySize=auto;html=1;exitX=0.5;exitY=1;exitDx=0;exitDy=0;entryX=0.5;entryY=0;entryDx=0;entryDy=0;" parent="Q-pru-dwEbLBsa_V41_M-282" source="Q-pru-dwEbLBsa_V41_M-313" target="Q-pru-dwEbLBsa_V41_M-322" edge="1">
          <mxGeometry relative="1" as="geometry" />
        </mxCell>
        <mxCell id="Q-pru-dwEbLBsa_V41_M-313" value="盤面の変更" style="rounded=0;whiteSpace=wrap;html=1;" parent="Q-pru-dwEbLBsa_V41_M-282" vertex="1">
          <mxGeometry x="155" y="330" width="90" height="30" as="geometry" />
        </mxCell>
        <mxCell id="Q-pru-dwEbLBsa_V41_M-314" value="" style="endArrow=classic;html=1;rounded=0;entryX=0;entryY=0.5;entryDx=0;entryDy=0;" parent="Q-pru-dwEbLBsa_V41_M-282" target="Q-pru-dwEbLBsa_V41_M-313" edge="1">
          <mxGeometry width="50" height="50" relative="1" as="geometry">
            <mxPoint x="85" y="260" as="sourcePoint" />
            <mxPoint x="145" y="340" as="targetPoint" />
            <Array as="points">
              <mxPoint x="85" y="345" />
            </Array>
          </mxGeometry>
        </mxCell>
        <mxCell id="Q-pru-dwEbLBsa_V41_M-315" value="" style="endArrow=classic;html=1;rounded=0;exitX=0;exitY=0.5;exitDx=0;exitDy=0;entryX=0;entryY=0.5;entryDx=0;entryDy=0;" parent="Q-pru-dwEbLBsa_V41_M-282" source="Q-pru-dwEbLBsa_V41_M-310" target="Q-pru-dwEbLBsa_V41_M-313" edge="1">
          <mxGeometry width="50" height="50" relative="1" as="geometry">
            <mxPoint x="145" y="470" as="sourcePoint" />
            <mxPoint x="195" y="420" as="targetPoint" />
            <Array as="points">
              <mxPoint x="55" y="225" />
              <mxPoint x="55" y="345" />
            </Array>
          </mxGeometry>
        </mxCell>
        <mxCell id="Q-pru-dwEbLBsa_V41_M-316" value="対CPU" style="edgeLabel;html=1;align=center;verticalAlign=middle;resizable=0;points=[];" parent="Q-pru-dwEbLBsa_V41_M-315" vertex="1" connectable="0">
          <mxGeometry x="-0.7727" relative="1" as="geometry">
            <mxPoint as="offset" />
          </mxGeometry>
        </mxCell>
        <mxCell id="Q-pru-dwEbLBsa_V41_M-317" style="edgeStyle=orthogonalEdgeStyle;rounded=0;orthogonalLoop=1;jettySize=auto;html=1;exitX=0.5;exitY=1;exitDx=0;exitDy=0;entryX=1;entryY=0.5;entryDx=0;entryDy=0;" parent="Q-pru-dwEbLBsa_V41_M-282" source="Q-pru-dwEbLBsa_V41_M-318" target="Q-pru-dwEbLBsa_V41_M-313" edge="1">
          <mxGeometry relative="1" as="geometry" />
        </mxCell>
        <mxCell id="Q-pru-dwEbLBsa_V41_M-318" value="相手の入力を受け取る" style="rounded=0;whiteSpace=wrap;html=1;" parent="Q-pru-dwEbLBsa_V41_M-282" vertex="1">
          <mxGeometry x="355" y="210" width="125" height="30" as="geometry" />
        </mxCell>
        <mxCell id="Q-pru-dwEbLBsa_V41_M-319" style="edgeStyle=orthogonalEdgeStyle;rounded=0;orthogonalLoop=1;jettySize=auto;html=1;exitX=0.5;exitY=1;exitDx=0;exitDy=0;entryX=1;entryY=0.5;entryDx=0;entryDy=0;" parent="Q-pru-dwEbLBsa_V41_M-282" source="Q-pru-dwEbLBsa_V41_M-320" target="Q-pru-dwEbLBsa_V41_M-313" edge="1">
          <mxGeometry relative="1" as="geometry" />
        </mxCell>
        <mxCell id="Q-pru-dwEbLBsa_V41_M-320" value="CPUの設置場所決定" style="rounded=0;whiteSpace=wrap;html=1;" parent="Q-pru-dwEbLBsa_V41_M-282" vertex="1">
          <mxGeometry x="215" y="210" width="120" height="30" as="geometry" />
        </mxCell>
        <mxCell id="Q-pru-dwEbLBsa_V41_M-321" style="edgeStyle=orthogonalEdgeStyle;rounded=0;orthogonalLoop=1;jettySize=auto;html=1;exitX=0.5;exitY=1;exitDx=0;exitDy=0;entryX=0.5;entryY=0;entryDx=0;entryDy=0;" parent="Q-pru-dwEbLBsa_V41_M-282" source="Q-pru-dwEbLBsa_V41_M-322" target="Q-pru-dwEbLBsa_V41_M-332" edge="1">
          <mxGeometry relative="1" as="geometry" />
        </mxCell>
        <mxCell id="Q-pru-dwEbLBsa_V41_M-322" value="終了判定" style="rounded=0;whiteSpace=wrap;html=1;" parent="Q-pru-dwEbLBsa_V41_M-282" vertex="1">
          <mxGeometry x="157.5" y="390" width="85" height="30" as="geometry" />
        </mxCell>
        <mxCell id="Q-pru-dwEbLBsa_V41_M-331" style="edgeStyle=orthogonalEdgeStyle;rounded=0;orthogonalLoop=1;jettySize=auto;html=1;exitX=0.5;exitY=1;exitDx=0;exitDy=0;entryX=0.5;entryY=0;entryDx=0;entryDy=0;" parent="Q-pru-dwEbLBsa_V41_M-282" source="Q-pru-dwEbLBsa_V41_M-332" target="Q-pru-dwEbLBsa_V41_M-385" edge="1">
          <mxGeometry relative="1" as="geometry">
            <mxPoint x="199.5" y="510" as="targetPoint" />
          </mxGeometry>
        </mxCell>
        <mxCell id="Q-pru-dwEbLBsa_V41_M-388" value="勝敗判定" style="edgeLabel;html=1;align=center;verticalAlign=middle;resizable=0;points=[];" parent="Q-pru-dwEbLBsa_V41_M-331" vertex="1" connectable="0">
          <mxGeometry x="0.4104" y="1" relative="1" as="geometry">
            <mxPoint as="offset" />
          </mxGeometry>
        </mxCell>
        <mxCell id="Q-pru-dwEbLBsa_V41_M-332" value="" style="rhombus;whiteSpace=wrap;html=1;" parent="Q-pru-dwEbLBsa_V41_M-282" vertex="1">
          <mxGeometry x="190" y="440" width="20" height="20" as="geometry" />
        </mxCell>
        <mxCell id="Q-pru-dwEbLBsa_V41_M-333" value="" style="endArrow=classic;html=1;rounded=0;exitX=1;exitY=0.5;exitDx=0;exitDy=0;entryX=1;entryY=0.5;entryDx=0;entryDy=0;" parent="Q-pru-dwEbLBsa_V41_M-282" source="Q-pru-dwEbLBsa_V41_M-332" target="Q-pru-dwEbLBsa_V41_M-302" edge="1">
          <mxGeometry width="50" height="50" relative="1" as="geometry">
            <mxPoint x="395" y="540" as="sourcePoint" />
            <mxPoint x="445" y="490" as="targetPoint" />
            <Array as="points">
              <mxPoint x="345" y="450" />
              <mxPoint x="345" y="100" />
            </Array>
          </mxGeometry>
        </mxCell>
        <mxCell id="Q-pru-dwEbLBsa_V41_M-334" value="未終了" style="edgeLabel;html=1;align=center;verticalAlign=middle;resizable=0;points=[];" parent="Q-pru-dwEbLBsa_V41_M-333" vertex="1" connectable="0">
          <mxGeometry x="-0.8771" y="-2" relative="1" as="geometry">
            <mxPoint as="offset" />
          </mxGeometry>
        </mxCell>
        <mxCell id="Q-pru-dwEbLBsa_V41_M-387" style="edgeStyle=orthogonalEdgeStyle;rounded=0;orthogonalLoop=1;jettySize=auto;html=1;exitX=1;exitY=0.5;exitDx=0;exitDy=0;" parent="Q-pru-dwEbLBsa_V41_M-282" source="Q-pru-dwEbLBsa_V41_M-336" edge="1">
          <mxGeometry relative="1" as="geometry">
            <mxPoint x="520" y="499.82978723404256" as="targetPoint" />
          </mxGeometry>
        </mxCell>
        <mxCell id="Q-pru-dwEbLBsa_V41_M-336" value="終了したことを知らせる" style="rounded=0;whiteSpace=wrap;html=1;" parent="Q-pru-dwEbLBsa_V41_M-282" vertex="1">
          <mxGeometry x="275" y="490" width="140" height="20" as="geometry" />
        </mxCell>
        <mxCell id="Q-pru-dwEbLBsa_V41_M-337" value="" style="endArrow=classic;html=1;rounded=0;exitX=0.5;exitY=1;exitDx=0;exitDy=0;" parent="Q-pru-dwEbLBsa_V41_M-282" source="Q-pru-dwEbLBsa_V41_M-332" target="Q-pru-dwEbLBsa_V41_M-336" edge="1">
          <mxGeometry width="50" height="50" relative="1" as="geometry">
            <mxPoint x="375" y="530" as="sourcePoint" />
            <mxPoint x="295" y="480" as="targetPoint" />
            <Array as="points">
              <mxPoint x="200" y="500" />
            </Array>
          </mxGeometry>
        </mxCell>
        <mxCell id="Q-pru-dwEbLBsa_V41_M-386" value="終了" style="edgeLabel;html=1;align=center;verticalAlign=middle;resizable=0;points=[];" parent="Q-pru-dwEbLBsa_V41_M-337" vertex="1" connectable="0">
          <mxGeometry x="-0.6826" y="-1" relative="1" as="geometry">
            <mxPoint y="-1" as="offset" />
          </mxGeometry>
        </mxCell>
        <mxCell id="Q-pru-dwEbLBsa_V41_M-382" value="" style="ellipse;whiteSpace=wrap;html=1;aspect=fixed;fillColor=light-dark(#000000, #1a1a1a);fontColor=#333333;strokeColor=#666666;" parent="Q-pru-dwEbLBsa_V41_M-282" vertex="1">
          <mxGeometry x="205" y="30" width="20" height="20" as="geometry" />
        </mxCell>
        <mxCell id="Q-pru-dwEbLBsa_V41_M-385" value="" style="ellipse;html=1;shape=endState;fillColor=#000000;strokeColor=#000000;" parent="Q-pru-dwEbLBsa_V41_M-282" vertex="1">
          <mxGeometry x="189" y="545" width="21" height="20" as="geometry" />
        </mxCell>
        <mxCell id="Q-pru-dwEbLBsa_V41_M-341" value="サーバ" style="swimlane;startSize=20;html=1;" parent="Q-pru-dwEbLBsa_V41_M-274" vertex="1">
          <mxGeometry x="630" y="20" width="160" height="580" as="geometry" />
        </mxCell>
        <mxCell id="Lt3LTjU2pGwsAMisA901-1" value="" style="endArrow=classic;html=1;rounded=0;entryX=1;entryY=0.5;entryDx=0;entryDy=0;" edge="1" parent="Q-pru-dwEbLBsa_V41_M-341" target="Q-pru-dwEbLBsa_V41_M-318">
          <mxGeometry width="50" height="50" relative="1" as="geometry">
            <mxPoint x="30" y="225" as="sourcePoint" />
            <mxPoint x="120" y="190" as="targetPoint" />
          </mxGeometry>
        </mxCell>
        <mxCell id="Q-pru-dwEbLBsa_V41_M-351" style="edgeStyle=orthogonalEdgeStyle;rounded=0;orthogonalLoop=1;jettySize=auto;html=1;exitX=0;exitY=0.5;exitDx=0;exitDy=0;entryX=1;entryY=0.5;entryDx=0;entryDy=0;" parent="Q-pru-dwEbLBsa_V41_M-274" source="Q-pru-dwEbLBsa_V41_M-303" target="Q-pru-dwEbLBsa_V41_M-278" edge="1">
          <mxGeometry relative="1" as="geometry">
            <mxPoint x="170" y="160" as="targetPoint" />
          </mxGeometry>
        </mxCell>
        <mxCell id="Q-pru-dwEbLBsa_V41_M-352" value="自分の番" style="edgeLabel;html=1;align=center;verticalAlign=middle;resizable=0;points=[];" parent="Q-pru-dwEbLBsa_V41_M-351" vertex="1" connectable="0">
          <mxGeometry x="-0.0909" relative="1" as="geometry">
            <mxPoint as="offset" />
          </mxGeometry>
        </mxCell>
        <mxCell id="Lt3LTjU2pGwsAMisA901-5" style="edgeStyle=orthogonalEdgeStyle;rounded=0;orthogonalLoop=1;jettySize=auto;html=1;exitX=1;exitY=0.5;exitDx=0;exitDy=0;entryX=0;entryY=0.5;entryDx=0;entryDy=0;" edge="1" parent="Q-pru-dwEbLBsa_V41_M-274" source="Lt3LTjU2pGwsAMisA901-3" target="Q-pru-dwEbLBsa_V41_M-305">
          <mxGeometry relative="1" as="geometry" />
        </mxCell>
        <mxCell id="Lt3LTjU2pGwsAMisA901-7" value="入力される" style="edgeLabel;html=1;align=center;verticalAlign=middle;resizable=0;points=[];" vertex="1" connectable="0" parent="Lt3LTjU2pGwsAMisA901-5">
          <mxGeometry x="0.0058" relative="1" as="geometry">
            <mxPoint as="offset" />
          </mxGeometry>
        </mxCell>
        <mxCell id="Q-pru-dwEbLBsa_V41_M-92" value="勝敗判定" style="swimlane;childLayout=stackLayout;resizeParent=1;resizeParentMax=0;startSize=20;html=1;" parent="1" vertex="1">
          <mxGeometry x="680" y="660" width="590" height="280" as="geometry" />
        </mxCell>
        <mxCell id="Q-pru-dwEbLBsa_V41_M-93" value="プレイヤー" style="swimlane;startSize=20;html=1;" parent="Q-pru-dwEbLBsa_V41_M-92" vertex="1">
          <mxGeometry y="20" width="160" height="260" as="geometry" />
        </mxCell>
        <mxCell id="Q-pru-dwEbLBsa_V41_M-99" value="終了かスタート画面へ戻るか選択" style="rounded=0;whiteSpace=wrap;html=1;" parent="Q-pru-dwEbLBsa_V41_M-93" vertex="1">
          <mxGeometry x="20" y="67.5" width="120" height="40" as="geometry" />
        </mxCell>
        <mxCell id="Q-pru-dwEbLBsa_V41_M-100" value="クライアントプログラム" style="swimlane;startSize=20;html=1;" parent="Q-pru-dwEbLBsa_V41_M-92" vertex="1">
          <mxGeometry x="160" y="20" width="280" height="260" as="geometry" />
        </mxCell>
        <mxCell id="Q-pru-dwEbLBsa_V41_M-143" value="勝敗判定を出力" style="rounded=0;whiteSpace=wrap;html=1;" parent="Q-pru-dwEbLBsa_V41_M-100" vertex="1">
          <mxGeometry x="95" y="75" width="89" height="25" as="geometry" />
        </mxCell>
        <mxCell id="Q-pru-dwEbLBsa_V41_M-144" style="edgeStyle=orthogonalEdgeStyle;rounded=0;orthogonalLoop=1;jettySize=auto;html=1;exitX=0.5;exitY=1;exitDx=0;exitDy=0;entryX=0.5;entryY=0;entryDx=0;entryDy=0;" parent="Q-pru-dwEbLBsa_V41_M-100" source="Q-pru-dwEbLBsa_V41_M-148" target="Q-pru-dwEbLBsa_V41_M-158" edge="1">
          <mxGeometry relative="1" as="geometry" />
        </mxCell>
        <mxCell id="Q-pru-dwEbLBsa_V41_M-145" value="終了" style="edgeLabel;html=1;align=center;verticalAlign=middle;resizable=0;points=[];" parent="Q-pru-dwEbLBsa_V41_M-144" vertex="1" connectable="0">
          <mxGeometry x="-0.3324" y="2" relative="1" as="geometry">
            <mxPoint as="offset" />
          </mxGeometry>
        </mxCell>
        <mxCell id="Q-pru-dwEbLBsa_V41_M-392" style="edgeStyle=orthogonalEdgeStyle;rounded=0;orthogonalLoop=1;jettySize=auto;html=1;exitX=1;exitY=0.5;exitDx=0;exitDy=0;entryX=0;entryY=0.5;entryDx=0;entryDy=0;" parent="Q-pru-dwEbLBsa_V41_M-100" source="Q-pru-dwEbLBsa_V41_M-148" target="Q-pru-dwEbLBsa_V41_M-391" edge="1">
          <mxGeometry relative="1" as="geometry" />
        </mxCell>
        <mxCell id="Q-pru-dwEbLBsa_V41_M-395" value="プレイ方法の選択" style="edgeLabel;html=1;align=center;verticalAlign=middle;resizable=0;points=[];" parent="Q-pru-dwEbLBsa_V41_M-392" vertex="1" connectable="0">
          <mxGeometry x="0.02" relative="1" as="geometry">
            <mxPoint as="offset" />
          </mxGeometry>
        </mxCell>
        <mxCell id="Q-pru-dwEbLBsa_V41_M-148" value="" style="rhombus;whiteSpace=wrap;html=1;" parent="Q-pru-dwEbLBsa_V41_M-100" vertex="1">
          <mxGeometry x="70" y="155" width="20" height="20" as="geometry" />
        </mxCell>
        <mxCell id="Q-pru-dwEbLBsa_V41_M-158" value="" style="ellipse;html=1;shape=endState;fillColor=#000000;strokeColor=#000000;" parent="Q-pru-dwEbLBsa_V41_M-100" vertex="1">
          <mxGeometry x="70" y="220.00000000000006" width="21" height="20" as="geometry" />
        </mxCell>
        <mxCell id="Q-pru-dwEbLBsa_V41_M-390" style="edgeStyle=orthogonalEdgeStyle;rounded=0;orthogonalLoop=1;jettySize=auto;html=1;exitX=0.5;exitY=1;exitDx=0;exitDy=0;entryX=0.5;entryY=0;entryDx=0;entryDy=0;" parent="Q-pru-dwEbLBsa_V41_M-100" source="Q-pru-dwEbLBsa_V41_M-389" target="Q-pru-dwEbLBsa_V41_M-143" edge="1">
          <mxGeometry relative="1" as="geometry" />
        </mxCell>
        <mxCell id="Q-pru-dwEbLBsa_V41_M-389" value="" style="ellipse;whiteSpace=wrap;html=1;aspect=fixed;fillColor=light-dark(#000000, #1a1a1a);fontColor=#333333;strokeColor=#666666;" parent="Q-pru-dwEbLBsa_V41_M-100" vertex="1">
          <mxGeometry x="129" y="30" width="20" height="20" as="geometry" />
        </mxCell>
        <mxCell id="Q-pru-dwEbLBsa_V41_M-391" value="" style="ellipse;html=1;shape=endState;fillColor=#000000;strokeColor=#000000;" parent="Q-pru-dwEbLBsa_V41_M-100" vertex="1">
          <mxGeometry x="250" y="155" width="21" height="20" as="geometry" />
        </mxCell>
        <mxCell id="Q-pru-dwEbLBsa_V41_M-159" value="サーバ" style="swimlane;startSize=20;html=1;" parent="Q-pru-dwEbLBsa_V41_M-92" vertex="1">
          <mxGeometry x="440" y="20" width="150" height="260" as="geometry" />
        </mxCell>
        <mxCell id="Q-pru-dwEbLBsa_V41_M-172" style="edgeStyle=orthogonalEdgeStyle;rounded=0;orthogonalLoop=1;jettySize=auto;html=1;exitX=0;exitY=0.5;exitDx=0;exitDy=0;entryX=1;entryY=0.5;entryDx=0;entryDy=0;" parent="Q-pru-dwEbLBsa_V41_M-92" source="Q-pru-dwEbLBsa_V41_M-143" target="Q-pru-dwEbLBsa_V41_M-99" edge="1">
          <mxGeometry relative="1" as="geometry" />
        </mxCell>
        <mxCell id="Q-pru-dwEbLBsa_V41_M-173" style="edgeStyle=orthogonalEdgeStyle;rounded=0;orthogonalLoop=1;jettySize=auto;html=1;exitX=0.5;exitY=1;exitDx=0;exitDy=0;entryX=0.5;entryY=0;entryDx=0;entryDy=0;" parent="Q-pru-dwEbLBsa_V41_M-92" source="Q-pru-dwEbLBsa_V41_M-99" target="Q-pru-dwEbLBsa_V41_M-148" edge="1">
          <mxGeometry relative="1" as="geometry" />
        </mxCell>
      </root>
    </mxGraphModel>
  </diagram>
</mxfile>
